<?xml version="1.0" encoding="UTF-8" standalone="no"?>
<!-- Created with Inkscape (http://www.inkscape.org/) -->

<svg
   xmlns:dc="http://purl.org/dc/elements/1.1/"
   xmlns:cc="http://creativecommons.org/ns#"
   xmlns:rdf="http://www.w3.org/1999/02/22-rdf-syntax-ns#"
   xmlns:svg="http://www.w3.org/2000/svg"
   xmlns="http://www.w3.org/2000/svg"
   xmlns:sodipodi="http://sodipodi.sourceforge.net/DTD/sodipodi-0.dtd"
   xmlns:inkscape="http://www.inkscape.org/namespaces/inkscape"
   width="954.81256"
   height="1075.7965"
   id="svg2160"
   sodipodi:version="0.32"
   inkscape:version="0.48.4 r9939"
   sodipodi:docname="L_Old_London.svg"
   inkscape:output_extension="org.inkscape.output.svg.inkscape"
   version="1.1">
  <defs
     id="defs2162" />
  <sodipodi:namedview
     id="base"
     pagecolor="#ffffff"
     bordercolor="#666666"
     borderopacity="1.0"
     inkscape:pageopacity="0.0"
     inkscape:pageshadow="2"
     inkscape:zoom="0.3"
     inkscape:cx="470.75598"
     inkscape:cy="529.01367"
     inkscape:current-layer="layer1"
     inkscape:document-units="px"
     inkscape:window-width="836"
     inkscape:window-height="745"
     inkscape:window-x="269"
     inkscape:window-y="42"
     showgrid="false"
     fit-margin-top="0"
     fit-margin-left="0"
     fit-margin-right="0"
     fit-margin-bottom="0"
     inkscape:window-maximized="0" />
  <metadata
     id="metadata2165">
    <rdf:RDF>
      <cc:Work
         rdf:about="">
        <dc:format>image/svg+xml</dc:format>
        <dc:type
           rdf:resource="http://purl.org/dc/dcmitype/StillImage" />
      </cc:Work>
    </rdf:RDF>
  </metadata>
  <g
     id="layer1"
     inkscape:label="Layer 1"
     inkscape:groupmode="layer"
     transform="translate(-329.24402,-53.217143)">
    <path
       transform="translate(130,66.666667)"
       style="font-size:1100px;font-family:Old English Five"
       d="m 980.23462,1062.347 173.82198,-161.70351 -26.419,-28.60107 -69.2871,64.88953 C 976.21664,870.19628 883.81154,836.8284 781.13489,836.82819 c -51.31693,2.1e-4 -115.47906,11.73827 -192.48657,35.21423 l 26.38549,-23.0957 c 90.94994,-77.00779 152.54961,-141.90844 184.7992,-194.70215 31.53209,-52.07679 47.29847,-116.97744 47.29919,-194.70215 -7.2e-4,-29.33898 -5.4949,-96.80209 -16.48254,-202.38953 -4.40948,-44.01975 -6.61386,-69.68908 -6.61316,-77.00805 -7e-4,-48.40607 12.83396,-84.342009 38.50403,-107.807926 25.66858,-23.463967 68.20089,-38.49742 127.59704,-45.100403 l -16.48254,-36.2884517 -17.6239,0 C 870.24954,-9.0508847 803.34032,13.681128 755.30328,59.144165 707.26498,104.60918 683.24614,168.40764 683.2467,250.53973 c -5.6e-4,10.27301 0.18408,19.99132 0.5539,29.15497 0.3687,9.16519 0.9114,18.51424 1.62811,28.04718 l 7.72095,82.51343 c 3.66967,37.39686 6.42235,66.36157 8.25805,86.89423 1.83455,20.53379 2.75211,33.73212 2.75269,39.59503 -5.8e-4,156.1873 -71.87246,283.05689 -215.61584,380.60913 47.66804,-66.01948 81.76326,-125.79522 102.28576,-179.32739 19.80542,-51.31595 29.70837,-108.50685 29.70886,-171.57288 -4.9e-4,-28.60054 -1.09709,-58.85208 -3.28979,-90.7547 -2.19369,-31.90144 -5.12541,-65.45395 -8.79517,-100.65765 -6.60244,-62.32632 -9.90343,-100.09178 -9.90295,-113.29651 -4.8e-4,-49.14466 9.16394,-89.48377 27.49329,-121.01746 C 645.84994,87.740604 681.05295,52.179523 731.65369,14.043762 L 717.35315,-9.0519407 C 659.41194,20.266306 613.20939,34.924901 578.74536,34.923889 c -20.54487,10e-4 -52.07763,-7.697548 -94.59839,-23.095703 -52.07754,-16.8507544 -89.843,-25.276649 -113.29651,-25.27771 -46.21398,0.0011 -86.18383,16.8640402 -119.90966,50.58899 -34.46462,33.010823 -51.69686,71.872884 -51.69678,116.586304 -8e-5,15.42039 4.3975,36.32288 13.19275,62.70752 l 27.49328,-12.08496 c -2.19331,-18.328 -3.2899,-28.23094 -3.28979,-29.70886 -1.1e-4,-21.99821 6.41722,-39.77876 19.25201,-53.34168 12.83453,-13.56107 30.25141,-20.34207 52.25067,-20.34302 18.32866,9.5e-4 40.697,4.76779 67.10511,14.30054 32.98718,11.72781 60.48044,17.59125 82.47986,17.59033 33.00947,9.2e-4 76.64957,-7.33957 130.92041,-22.02148 -48.4074,46.21467 -81.40603,88.38891 -98.99598,126.52283 -17.61306,38.85168 -26.4194,88.71328 -26.41906,149.58496 -3.4e-4,3.6709 -3.4e-4,7.34114 0,11.01074 -3.4e-4,3.67089 0.36892,7.69921 1.10778,12.08496 2.19286,12.46604 3.28946,21.99972 3.2898,28.60107 -19.78385,-5.1243 -37.74343,-7.68676 -53.87878,-7.68737 -47.6687,6.1e-4 -91.3088,23.83482 -130.92041,71.50268 l 19.8059,16.48254 c 19.80571,-15.39659 42.54332,-23.09515 68.21289,-23.0957 74.05364,5.5e-4 111.8191,46.94163 113.29651,140.82337 -27.86288,-17.61229 -53.16294,-26.41863 -75.90027,-26.41907 -28.60133,4.4e-4 -57.20237,16.13608 -85.80322,48.40698 l 14.30054,16.48255 c 15.39691,-5.86307 29.32817,-8.79479 41.79382,-8.79517 13.20367,3.8e-4 25.67467,2.75306 37.41303,8.25806 11.73777,5.50573 22.00438,13.20989 30.79986,23.11248 8.79484,9.9033 15.76047,21.26651 20.89691,34.08966 5.13576,12.82379 7.70381,26.57602 7.70417,41.25672 -3.6e-4,85.06488 -70.40637,171.59536 -211.21827,259.59165 l 18.69813,29.7089 C 419.9733,986.81604 546.11554,949.05057 661.25879,949.05048 c 112.92659,9e-5 219.25176,37.76556 318.97583,113.29652 l 0,0 z"
       id="flowRoot2168"
       inkscape:connector-curvature="0" />
  </g>
</svg>
